<svg xmlns="http://www.w3.org/2000/svg" viewBox="0 0 1662.13 712.82">
	<defs><style>.cls-1{fill:#2b4692;}.cls-2{fill:#5a5a5a;}</style></defs>
	<g id="Layer_2" data-name="Layer 2">
		<g id="Layer_1-2" data-name="Layer 1">
			<path class="cls-1" d="M277.73,108.77,304.92,136,197.16,243.73a16.65,16.65,0,0,0-4.87,11.77V401a16.68,16.68,0,0,0,4.87,11.78L304.92,520.54l-27.19,27.19-119-119a16.64,16.64,0,0,1-4.88-11.78V239.57a16.62,16.62,0,0,1,4.88-11.77Z"/>
			<path class="cls-1" d="M250.54,81.58l-27.2-27.19L81.79,195.94a16.66,16.66,0,0,0-4.88,11.77V448.79a16.64,16.64,0,0,0,4.88,11.77L252.26,631A16.66,16.66,0,0,0,264,635.91H496.08V597.45H280a16.62,16.62,0,0,1-11.77-4.88L120.25,444.63a16.64,16.64,0,0,1-4.88-11.77V223.64a16.66,16.66,0,0,1,4.88-11.77Z"/>
			<path class="cls-1" d="M196.15,27.19,169,0,4.88,164.08A16.62,16.62,0,0,0,0,175.85v304.8a16.6,16.6,0,0,0,4.88,11.77L220.4,708a16.65,16.65,0,0,0,11.77,4.87H537A16.65,16.65,0,0,0,548.74,708L757.88,498.81l-27.2-27.19L532.81,669.49A16.64,16.64,0,0,1,521,674.37H248.1a16.66,16.66,0,0,1-11.77-4.88l-193-193a16.63,16.63,0,0,1-4.87-11.77V191.78A16.65,16.65,0,0,1,43.33,180Z"/>
			<path class="cls-2" d="M486.09,384.34a106.49,106.49,0,0,1-16.4,11,113.42,113.42,0,0,1-23.6,9.78,99.32,99.32,0,0,1-28.33,3.93,101,101,0,0,1-34.39-5.73A84.61,84.61,0,0,1,355.5,387a74.64,74.64,0,0,1-18.66-25.52,80.31,80.31,0,0,1-6.75-33.38,73.33,73.33,0,0,1,7-31.92,78.6,78.6,0,0,1,19.22-25.39,89.59,89.59,0,0,1,28.21-16.75,95.67,95.67,0,0,1,33.72-6,102.93,102.93,0,0,1,28.1,3.82,109.39,109.39,0,0,1,24.17,9.89,76.26,76.26,0,0,1,17.19,12.82l-14.84,19.78a112.25,112.25,0,0,0-25.29-16.08,73.32,73.32,0,0,0-31.13-6.4,67,67,0,0,0-22.7,3.93,64.47,64.47,0,0,0-19.78,11.24A54.23,54.23,0,0,0,360,304.77a51.38,51.38,0,0,0-5.17,23.37q0,14.17,5.39,24.84a52.86,52.86,0,0,0,14.49,17.87,62.84,62.84,0,0,0,20.91,10.79,83.05,83.05,0,0,0,24.39,3.6A72.13,72.13,0,0,0,442.38,382a80,80,0,0,0,17.87-8.21c5.23-3.29,10-6.51,14.15-9.66Z"/>
			<path class="cls-2" d="M549,249.47H673.34v23.38h-100v41.58H661v23.38H573.3v45.63h100v23.38H549Z"/>
			<path class="cls-2" d="M865.74,383.44v23.38H742.56V249.47h24.28v134Z"/>
			<path class="cls-2" d="M927.33,249.47h124.3v23.38h-100v41.58h87.66v23.38H951.61v45.63h100v23.38H927.33Z"/>
			<path class="cls-2" d="M1258.66,298.25a45.57,45.57,0,0,1-4.61,20.23,51.1,51.1,0,0,1-12.7,16.41,56.45,56.45,0,0,1-18.43,10.56L1267.2,407l-30.12-.22-41.59-58.22h-50.35v58.22h-24.27V249.47h87a51,51,0,0,1,25.07,6.41,51.78,51.78,0,0,1,18.65,17.31A44.91,44.91,0,0,1,1258.66,298.25Zm-57.1-25.4h-56.42v52.37h57.77a31.4,31.4,0,0,0,15.17-3.71,29.51,29.51,0,0,0,10.9-9.89,24.29,24.29,0,0,0,4-13.6,21.07,21.07,0,0,0-4.27-12.92,28.79,28.79,0,0,0-11.46-9A37.74,37.74,0,0,0,1201.56,272.85Z"/>
			<path class="cls-2" d="M1473.09,249.47l-71.92,95.08v62.27h-24.28V345.9l-76.42-96.43h32.81l56,73.73,54.18-73.73Z"/>
			<path class="cls-2" d="M1635.61,406.82l-17.53-37.32h-87.44l-17.53,37.32H1487.7l73.51-157.35h27.65l73.27,157.35Zm-73.5-104.75-20.68,44.06h65.64l-20.91-45q-3.15-6.74-6.07-13.26t-5.84-14.16q-2.93,7.88-6,14.72C1566.26,293.05,1564.21,297.57,1562.11,302.07Z"/>
		</g>
	</g>
</svg>
