<svg xmlns="http://www.w3.org/2000/svg" viewBox="0 0 1140.62 487.28">
	<defs><style>.cls-1{fill:#fff;}</style></defs>
	<g id="Layer_2">
		<g id="Layer_1-2">
		<path class="cls-1" d="M133.65,282.92,207,356.21l-17.2,17.16-81-81a10.33,10.33,0,0,1-3-7.33V163.11a10.33,10.33,0,0,1,3-7.32l81-81L207,91.91l-73.32,73.32a12.61,12.61,0,0,0-3.66,8.84v100A12.68,12.68,0,0,0,133.65,282.92Z"/>
		<path class="cls-1" d="M338.76,410.13v24.29H180.36a10.28,10.28,0,0,1-7.32-3L55.9,314.24a10.29,10.29,0,0,1-3.06-7.35V141.23a10.16,10.16,0,0,1,3.06-7.32l96.51-96.55,17.17,17.19-88.8,88.77a12.57,12.57,0,0,0-3.66,8.87V296a12.65,12.65,0,0,0,3.66,8.84l101.7,101.67a12.34,12.34,0,0,0,8.84,3.66Z"/>
		<path class="cls-1" d="M518.23,341.27l-143,143a10.33,10.33,0,0,1-7.33,3H158.48a10.29,10.29,0,0,1-7.32-3L3,336.12a10.17,10.17,0,0,1-3-7.32V119.35A10.33,10.33,0,0,1,3,112L115,0l17.16,17.16L28,121.43a12.48,12.48,0,0,0-3.66,8.84V317.84A12.41,12.41,0,0,0,28,326.71L160.57,459.33a12.64,12.64,0,0,0,8.84,3.66H357a12.42,12.42,0,0,0,8.87-3.66L501.07,324.11Z"/>
		<path class="cls-1" d="M315.41,255.66a56.51,56.51,0,0,1-12.35,5.66,49.86,49.86,0,0,1-15.51,2.26,57.33,57.33,0,0,1-16.85-2.49,43.87,43.87,0,0,1-14.5-7.47,36.94,36.94,0,0,1-10-12.41A37.69,37.69,0,0,1,242.41,224,35.88,35.88,0,0,1,246,207.77a38.1,38.1,0,0,1,9.66-12.25,45.11,45.11,0,0,1,13.71-7.78A47.05,47.05,0,0,1,285.09,185a50.83,50.83,0,0,1,21.54,4.43,77.06,77.06,0,0,1,17.16,10.84l9.79-13a53.1,53.1,0,0,0-11.5-8.53A76.38,76.38,0,0,0,305.54,172a71.39,71.39,0,0,0-19.22-2.6,65.9,65.9,0,0,0-23,4.06A62.25,62.25,0,0,0,244,184.85a53.88,53.88,0,0,0-13.13,17.37A50.16,50.16,0,0,0,226.13,224a55.06,55.06,0,0,0,4.61,22.8,50.88,50.88,0,0,0,12.73,17.39,57.62,57.62,0,0,0,19,11.16A70.18,70.18,0,0,0,286,279.26a68.51,68.51,0,0,0,19.36-2.69,80,80,0,0,0,16.17-6.7,76.54,76.54,0,0,0,11-7.35l-7.7-13.27C322,251.31,318.87,253.48,315.41,255.66Z"/>
		<path class="cls-1" d="M324.82,249.25l7.7,13.27a76.54,76.54,0,0,1-11,7.35,80,80,0,0,1-16.17,6.7A68.51,68.51,0,0,1,286,279.26a70.18,70.18,0,0,1-23.52-3.92,57.62,57.62,0,0,1-19-11.16,50.88,50.88,0,0,1-12.73-17.39,55.06,55.06,0,0,1-4.61-22.8,50.16,50.16,0,0,1,4.75-21.77A53.88,53.88,0,0,1,244,184.85a62.25,62.25,0,0,1,19.28-11.44,65.9,65.9,0,0,1,23-4.06,71.39,71.39,0,0,1,19.22,2.6,76.38,76.38,0,0,1,16.54,6.78,53.1,53.1,0,0,1,11.5,8.53l-9.79,13a77.06,77.06,0,0,0-17.16-10.84A50.83,50.83,0,0,0,285.09,185a47.05,47.05,0,0,0-15.73,2.71,45.11,45.11,0,0,0-13.71,7.78A38.1,38.1,0,0,0,246,207.77,35.88,35.88,0,0,0,242.41,224a37.69,37.69,0,0,0,3.75,17.22,36.94,36.94,0,0,0,10,12.41,43.87,43.87,0,0,0,14.5,7.47,57.33,57.33,0,0,0,16.85,2.49,49.86,49.86,0,0,0,15.51-2.26,56.51,56.51,0,0,0,12.35-5.66C318.87,253.48,322,251.31,324.82,249.25Z"/>
		<path class="cls-1" d="M461.31,185.63V170.29H376.57V277.71h84.74V262.35H392.56V230.28h60.25V214.92H392.56V185.63Z"/>
		<path class="cls-1" d="M525.56,262.35V170.29h-16V277.71h83.93V262.35Z"/>
		<path class="cls-1" d="M721.28,185.63V170.29h-84.7V277.71h84.7V262.35H652.54V230.28h60.24V214.92H652.54V185.63Z"/>
		<path class="cls-1" d="M838.77,235.69l.45-.14a38.86,38.86,0,0,0,12.56-7.19,34.85,34.85,0,0,0,8.64-11.18,31.25,31.25,0,0,0,3.12-13.73,30.72,30.72,0,0,0-4.81-17A35.09,35.09,0,0,0,846,174.64a34.71,34.71,0,0,0-17-4.35H769.57V277.71h16v-40h35.16l.08.14,28.49,39.88,19.8.14Zm-13.19-13.36H785.53v-36.7h39.13a26.6,26.6,0,0,1,11,2.26,20,20,0,0,1,8,6.29,15,15,0,0,1,3,9.1,17.15,17.15,0,0,1-2.86,9.55,20.6,20.6,0,0,1-7.61,6.92A22.09,22.09,0,0,1,825.58,222.33Z"/>
		<path class="cls-1" d="M991.07,170.29l-37.42,50.89L915,170.29H893.38l52.14,65.77v41.65h16V235.14l0-.08,49-64.77Z"/>
		<path class="cls-1" d="M1090.59,170.29h-18.54l-50.17,107.42h16.67l12-25.66h60.53l.11.2,11.93,25.46h17.45Zm-32.93,66.43.26-.52,14.19-30.29c1.46-3.12,2.89-6.27,4.26-9.33s2.75-6.52,4.09-10.1l.32-.88.34.88c1.31,3.47,2.66,6.73,4,9.7s2.75,6.1,4.18,9.13l14.59,31.41Z"/>
	</g></g>
</svg>
