<svg xmlns="http://www.w3.org/2000/svg" viewBox="0 0 299.74 281.84" height="24px" width="24px">
	<defs>
		<style>.cls-1{fill:#fff;}</style>
	</defs>
	<g id="Layer_2">
		<g id="Layer_2-2">
			<g id="pittogramma_white">
				<path class="cls-1"
				      d="M77.3,163.64,119.71,206,109.76,216,62.89,169.08a6,6,0,0,1-1.75-4.23V94.34a6,6,0,0,1,1.75-4.23l46.87-46.88,9.95,9.93L77.3,95.57a7.3,7.3,0,0,0-2.12,5.11v57.83A7.34,7.34,0,0,0,77.3,163.64Z"/>
				<path class="cls-1"
				      d="M195.93,237.22v14H104.32a6,6,0,0,1-4.23-1.75L32.33,181.76a6,6,0,0,1-1.77-4.26V81.69a5.92,5.92,0,0,1,1.77-4.24L88.16,21.61l9.92,9.94L46.73,82.89A7.28,7.28,0,0,0,44.61,88v83.16a7.28,7.28,0,0,0,2.12,5.12l58.82,58.8a7.12,7.12,0,0,0,5.11,2.12Z"/>
				<path class="cls-1"
				      d="M299.74,197.39l-82.69,82.7a6,6,0,0,1-4.24,1.75H91.66a6,6,0,0,1-4.23-1.75L1.75,194.41A5.88,5.88,0,0,1,0,190.18V69a5.94,5.94,0,0,1,1.75-4.25L66.53,0l9.93,9.93L16.17,70.24a7.21,7.21,0,0,0-2.12,5.11V183.84A7.16,7.16,0,0,0,16.17,189l76.7,76.7A7.33,7.33,0,0,0,98,267.79H206.47a7.16,7.16,0,0,0,5.13-2.12l78.22-78.21Z"/>
			</g>
		</g>
	</g>
</svg>
